<?xml version="1.0" encoding="UTF-8"?><svg id="Layer_1" xmlns="http://www.w3.org/2000/svg" width="556.1306" height="200" viewBox="0 0 556.1306 200"><defs><style>.cls-1{fill:#fff;}.cls-2{fill:#bbb;}.cls-3{fill:#e1251b;}</style></defs><path class="cls-1" d="M231.6685,54.8401c0-9.9336,5.6004-18.2423,18.9639-18.2423h1.8068c7.227,0,20.7636,.5921,20.7636,.5921v13.808s-11.9133,.0486-17.1501,.4104c-6.5037,.3599-7.0436,2.3484-7.2272,7.9469v79.8293h-17.1571V54.8401Z"/><path class="cls-1" d="M514.5965,54.8401c0-9.9336,5.5967-18.2423,18.9674-18.2423h1.8033c7.2235,0,20.7634,.5921,20.7634,.5921v13.808s-11.9096,.0486-17.1499,.4104c-6.5002,.3599-7.0471,2.3484-7.2272,7.9469v79.8293h-17.1571V54.8401Z"/><path class="cls-1" d="M281.3405,37.1394s12.273-.5416,24.3734-.5416c20.5909,0,25.1042,6.3218,25.1042,23.1173v79.4694s-19.324,.5416-29.6175,.5416h-5.4203c-13.1837,0-21.3105-5.4185-21.3105-20.409v-29.9809c0-14.9906,8.1268-20.229,21.3105-20.229h17.8806v-9.5721c0-8.3087-3.4299-8.4885-8.3068-8.4885h-24.0135v-13.9072Zm10.2863,79.4694c0,5.0569,1.8068,7.9469,6.5037,7.9469h15.5303v-42.443h-15.5303c-4.517,0-6.5037,2.5285-6.5037,7.4035v27.0926Z"/><path class="cls-1" d="M343.4493,37.1394s14.2671-.5416,30.3408-.5416h5.7802c13.1837,0,21.3089,7.0434,21.3089,22.034v60.6853c0,14.9906-8.1251,20.409-21.3089,20.409h-5.5967c-6.3236,0-13.3673-.5416-13.3673-.5416v21.6722h-17.1571V37.1394Zm17.1571,14.4488V124.5557h15.8939c4.6968,0,7.2235-2.89,7.2235-7.9469V59.5351c0-4.8767-2.5266-7.9469-7.2235-7.9469h-15.8939Z"/><rect class="cls-3" x="413.8829" y="11.8553" width="17.7007" height="16.2538"/><rect class="cls-1" x="414.243" y="37.1394" width="17.1608" height="102.0452"/><path class="cls-1" d="M475.29,36.5978c20.5872,0,25.6477,6.3218,25.6477,23.1173v39.0131l-39.5548,.3617v17.3371c0,7.5852,3.2501,8.8503,8.4869,8.8503h27.4543v13.9072s-16.4373,.5416-27.4543,.5416c-20.7708,0-25.644-6.5018-25.644-23.1173V59.7151c0-16.7955,4.8732-23.1173,25.644-23.1173h5.4203Zm-13.9072,23.299v24.0209h22.394v-24.0209c0-7.4052-3.2501-8.8503-8.4869-8.8503h-5.4203c-5.2368,0-8.4869,1.4451-8.4869,8.8503Z"/><g><path class="cls-2" d="M235.5528,196.1593h7.8839v3.5083h-12.0121v-28.8941h12.0121v3.5083h-7.8839v8.8333h7.2649v3.509h-7.2649v9.5352Z"/><path class="cls-2" d="M259.7823,170.7735h4.1284v25.3858h7.2649v3.5083h-11.3933v-28.8941Z"/><path class="cls-2" d="M291.2776,196.1593h7.8841v3.5083h-12.0104v-28.8941h12.0104v3.5083h-7.8841v8.8333h7.2649v3.509h-7.2649v9.5352Z"/><path class="cls-2" d="M328.6333,170.7735v3.4668h-6.9751c-1.4451,0-2.4349,.1647-2.4349,2.3116v17.3371c0,2.1461,.9898,2.3106,2.4349,2.3106h6.9751v3.4679s-3.5901,.1242-6.9751,.1242c-4.9128,0-6.563-1.0736-6.563-6.0682v-17.006c0-5.0361,1.6502-6.0682,6.563-6.0682,3.5092,0,6.9751,.1242,6.9751,.1242Z"/><path class="cls-2" d="M353.9354,199.6675h-4.1282v-25.3858h-5.4474v-3.5083h15.0246v3.5083h-5.4491v25.3858Z"/><path class="cls-2" d="M375.813,170.7735h7.8012c4.7059,0,6.151,.9898,6.151,5.6129v4.8714c0,3.4255-1.3209,4.2929-2.6024,4.4989,1.6935,.3717,2.6024,1.4866,2.6024,4.8706v9.0403h-4.1284v-9.6592c0-1.8159-.9087-2.2703-2.1055-2.3116h-3.5919v11.9708h-4.1263v-28.8941Zm4.1263,13.415h3.6748c1.1967,0,2.0226-.1242,2.0226-1.8986v-6.1924c0-1.7742-.9501-1.8157-2.1468-1.8157h-3.5506v9.9067Z"/><path class="cls-2" d="M413.8291,170.6493c4.911,0,6.563,1.0321,6.563,6.0682v17.006c0,4.9946-1.652,6.0682-6.563,6.0682h-1.3624c-4.9128,0-6.563-1.1149-6.563-6.0682v-17.006c0-5.0361,1.6502-6.0682,6.563-6.0682h1.3624Zm-.0829,25.6333c1.4451,0,2.5176-.1647,2.5176-2.3116v-17.5019c0-2.1459-1.0725-2.3116-2.5176-2.3116h-1.1967c-1.4451,0-2.5176,.1657-2.5176,2.3116v17.5019c0,2.1468,1.0725,2.3116,2.5176,2.3116h1.1967Z"/><path class="cls-2" d="M441.0296,170.7735l6.151,18.5329h.0413v-18.5329h4.0438v28.8941h-4.4989l-5.7786-17.9563h-.2069v17.9563h-4.1263v-28.8941h4.3747Z"/><path class="cls-2" d="M467.6543,170.7735h4.1265v28.8941h-4.1265v-28.8941Z"/><path class="cls-2" d="M502.2027,170.7735v3.4668h-6.9752c-1.4451,0-2.4349,.1647-2.4349,2.3116v17.3371c0,2.1461,.9898,2.3106,2.4349,2.3106h6.9752v3.4679s-3.5903,.1242-6.9752,.1242c-4.9128,0-6.563-1.0736-6.563-6.0682v-17.006c0-5.0361,1.6502-6.0682,6.563-6.0682,3.5092,0,6.9752,.1242,6.9752,.1242Z"/><path class="cls-2" d="M531.8814,170.7735v3.3841h-6.6045c-1.4451,0-2.4349,.0827-2.4349,2.2288v2.8073c0,2.2288,.9087,2.4763,3.0538,3.3022l2.8487,.9907c2.3521,.8665,4.1282,1.6511,4.1282,5.4896v4.7473c0,4.9946-1.6519,6.0682-6.563,6.0682-3.5505,0-7.4719-.1242-7.4719-.1242v-3.385h7.4719c1.4433,0,2.4349-.1233,2.4349-2.2703v-4.2515c0-2.0641-1.0312-2.1874-2.7245-2.9306l-3.0126-1.0321c-2.3952-.9492-4.2938-1.7753-4.2938-5.5723v-3.5083c0-5.0361,1.652-6.0682,6.5632-6.0682,3.0557,0,6.6045,.1242,6.6045,.1242Z"/></g><g><path class="cls-3" d="M129.9086,99.9312c0,16.3439-13.3313,29.5995-29.7849,29.5995h0c-16.4517,0-29.7867-13.2556-29.7867-29.5995h0c0-16.3546,13.335-29.6048,29.7867-29.6048h0c16.4535,0,29.7849,13.2502,29.7849,29.6048h0Z"/><path class="cls-3" d="M75.3203,55.5346c1.6159,1.6349,4.7381,2.497,6.8374,1.563,8.0487-3.5822,17.8275-3.5704,17.8518-3.5704,10.0201,0,17.967,3.5704,17.967,3.5704,2.0884,.9582,5.1198,.0693,6.7359-1.5647l32.0459-32.4051c1.6161-1.634,1.4972-4.1787-.2644-5.6551C156.4938,17.4728,133.5248-.011,100.0204,.0059c-.0072,0-30.6469-.8403-56.4744,17.4669-1.8752,1.3288-1.8815,4.0211-.2655,5.656l32.0398,32.4058Z"/><path class="cls-3" d="M124.679,144.4654c-1.6159-1.6349-4.7383-2.497-6.8374-1.5629-8.0487,3.582-17.8277,3.5704-17.8518,3.5704-10.0201,0-17.967-3.5704-17.967-3.5704-2.0884-.9582-5.1199-.0693-6.7359,1.5647l-32.046,32.4051c-1.616,1.634-1.4972,4.1785,.2645,5.6551,0,0,22.969,17.4838,56.4735,17.4667,.0072,0,30.6469,.8405,56.4744-17.4667,1.8752-1.329,1.8815-4.0211,.2654-5.656l-32.0397-32.406Z"/><path class="cls-3" d="M55.5346,124.6781c1.6349-1.6159,2.497-4.7383,1.563-6.8374-3.5822-8.0487-3.5704-17.8275-3.5704-17.8518,0-10.0201,3.5704-17.967,3.5704-17.967,.9582-2.0884,.0693-5.1198-1.5647-6.7359L23.1279,43.2401c-1.634-1.6161-4.1786-1.4972-5.6552,.2644C17.4727,43.5045-.011,66.4735,.0059,99.978c0,.0072-.8403,30.6469,17.4668,56.4744,1.329,1.8752,4.0212,1.8815,5.6561,.2654l32.4058-32.0397Z"/><path class="cls-3" d="M144.4654,75.3193c-1.6349,1.6159-2.497,4.7383-1.5629,6.8374,3.582,8.0487,3.5704,17.8275,3.5704,17.8518,0,10.0201-3.5704,17.967-3.5704,17.967-.9584,2.0884-.0693,5.1198,1.5647,6.7359l32.4049,32.0459c1.6342,1.6161,4.1787,1.4972,5.6553-.2644,0,0,17.4838-22.969,17.4667-56.4735,0-.0072,.8405-30.6469-17.4667-56.4744-1.329-1.8752-4.0211-1.8815-5.656-.2655l-32.406,32.0398Z"/></g></svg>